<svg xmlns="http://www.w3.org/2000/svg" xmlns:xlink="http://www.w3.org/1999/xlink" version="1.1" x="0px" y="0px" viewBox="0 0 32 40" enable-background="new 0 0 32 32" xml:space="preserve"><g display="none"><rect x="-258.558" y="-163.333" display="inline" fill="#000000" width="421.23" height="207"/></g><g><g><path d="M22.912,11.548c-1.054,0-2.01-0.34-2.69-0.713l-0.485,1.896c0.615,0.356,1.669,0.647,2.755,0.696v1.54h1.588v-1.653    c1.863-0.324,2.884-1.556,2.884-2.998c0-1.458-0.777-2.35-2.706-3.03c-1.377-0.519-1.944-0.858-1.944-1.394    c0-0.453,0.341-0.907,1.394-0.907c1.167,0,1.912,0.373,2.334,0.551l0.47-1.831c-0.535-0.26-1.264-0.486-2.35-0.535V1.744h-1.588    v1.54c-1.734,0.34-2.739,1.458-2.739,2.884c0,1.572,1.184,2.383,2.917,2.966c1.199,0.405,1.718,0.794,1.718,1.41    C24.468,11.191,23.836,11.548,22.912,11.548z"/><path d="M5.595,3.142c0-0.302,0.246-0.548,0.548-0.548H9.43L8.629,4.132l2.299,2.622l3.175-6.098l-3.467-0.379L9.95,1.594H6.143    c-0.854,0-1.548,0.694-1.548,1.548v14.524h-4.31v6.552c0,2.772,2.281,5.04,5.069,5.04h0.092V32h1v-2.743h19.106V32h1v-2.743h0.093    c2.788,0,5.069-2.268,5.069-5.04v-6.552H5.595V3.142z M11.207,1.345l1.334,0.146l-1.825,3.505L9.832,3.987L11.207,1.345z     M30.715,24.217c0,2.228-1.826,4.04-4.069,4.04H5.354c-2.244,0-4.069-1.812-4.069-4.04v-5.552h29.43V24.217z"/></g></g><g display="none"><g display="inline"><path d="M22.912,11.548c-1.054,0-2.01-0.34-2.69-0.713l-0.485,1.896c0.615,0.356,1.669,0.647,2.755,0.696v1.54h1.588v-1.653    c1.863-0.324,2.884-1.556,2.884-2.998c0-1.458-0.777-2.35-2.706-3.03c-1.377-0.519-1.944-0.858-1.944-1.394    c0-0.453,0.341-0.907,1.394-0.907c1.167,0,1.912,0.373,2.334,0.551l0.47-1.831c-0.535-0.26-1.264-0.486-2.35-0.535V1.744h-1.588    v1.54c-1.734,0.34-2.739,1.458-2.739,2.884c0,1.572,1.184,2.383,2.917,2.966c1.199,0.405,1.718,0.794,1.718,1.41    C24.468,11.191,23.836,11.548,22.912,11.548z"/><path d="M6.143,3.094h3.027l-0.54,1.038l2.299,2.622l3.175-6.098l-3.467-0.379l-0.425,0.817H6.143    c-1.129,0-2.048,0.919-2.048,2.048v14.524h-3.81v6.552c0,2.633,2.065,4.787,4.662,4.999V32h2v-2.743h18.106V32h2v-2.784    c2.596-0.211,4.662-2.365,4.662-4.999v-6.552H6.096L6.143,3.094z M29.715,19.665v4.552c0,1.676-1.377,3.04-3.069,3.04H5.354    c-1.692,0-3.069-1.364-3.069-3.04v-4.552H29.715z"/></g></g><g display="none"><g display="inline"><text transform="matrix(1 0 0 1 18.8448 13.5571)" fill="#000000" stroke="#1A1718" stroke-width="0.5" stroke-miterlimit="10" font-family="'MyriadPro-Bold'" font-size="16.1974px">$</text><g><path fill="#000000" d="M10.922,0.811l2.401,0.263l-2.5,4.802L9.23,4.059L10.922,0.811 M10.636,0.277L8.629,4.132l2.299,2.623     l3.175-6.098L10.636,0.277L10.636,0.277z"/></g><g><line fill="#000000" stroke="#1A1718" stroke-width="0.5" stroke-miterlimit="10" x1="5.947" y1="29.116" x2="5.947" y2="32"/><line fill="#000000" stroke="#1A1718" stroke-width="0.5" stroke-miterlimit="10" x1="26.053" y1="29.116" x2="26.053" y2="32"/></g><path fill="#000000" stroke="#1A1718" stroke-width="0.5" stroke-miterlimit="10" d="M5.096,17.883V3.142    c0-0.576,0.471-1.048,1.048-1.048h4.161"/><g><path fill="#000000" d="M31.215,18.165v6.052c0,2.503-2.05,4.54-4.569,4.54H5.354c-2.52,0-4.569-2.037-4.569-4.54v-6.052H31.215      M31.715,17.665H0.285v6.552c0,2.772,2.281,5.04,5.069,5.04h21.291c2.788,0,5.069-2.268,5.069-5.04V17.665L31.715,17.665z"/></g></g></g></svg>