<svg xmlns="http://www.w3.org/2000/svg" xmlns:xlink="http://www.w3.org/1999/xlink" version="1.1" x="0px" y="0px" viewBox="0 0 64 80" enable-background="new 0 0 64 64" xml:space="preserve"><g><rect x="10.754" y="25.372" width="42.659" height="2.406"/><rect x="10.754" y="29.308" width="42.659" height="2.406"/><rect x="10.754" y="33.243" width="42.659" height="2.406"/><path d="M61.66,14.371h-5.096V4.428c0-1.984-1.609-3.593-3.593-3.593H11.53c-1.984,0-3.593,1.609-3.593,3.593v9.942H2.339   C1.047,14.371,0,15.418,0,16.71c0,1.292,1.047,2.34,2.339,2.34h1.527v44.115h4.903V23.391h46.962v39.774h4.903V19.05h1.026   c1.292,0,2.34-1.047,2.34-2.34C64,15.418,62.953,14.371,61.66,14.371z"/><path d="M49.185,46.137c-0.118,0.13-0.246,0.318-0.373,0.526l-2.828-5.488c-0.927-1.799-2.76-2.917-4.784-2.917H23.282   c-2.024,0-3.857,1.118-4.784,2.917l-2.819,5.471c-0.124-0.2-0.248-0.382-0.363-0.508c-0.692-0.762-1.871-0.818-2.632-0.125   c-0.761,0.692-0.818,1.871-0.125,2.632c0.366,0.402,1.166,0.929,1.954,1.242v6.171v0.371v4.261c0,1.364,1.103,2.476,2.466,2.476   h1.885c1.364,0,2.477-1.113,2.477-2.476v-2.627h21.807v2.627c0,1.364,1.103,2.476,2.476,2.476h1.875   c1.363,0,2.476-1.113,2.476-2.476v-4.261v-0.371v-6.165c0.793-0.312,1.6-0.843,1.968-1.248c0.692-0.762,0.636-1.94-0.125-2.632   C51.056,45.319,49.877,45.375,49.185,46.137z M19.969,55.16c-1.229,0-2.224-0.996-2.224-2.225c0-1.229,0.996-2.224,2.224-2.224   c1.229,0,2.225,0.996,2.225,2.224C22.193,54.164,21.197,55.16,19.969,55.16z M37.913,55.982H26.584   c-0.451,0-0.822-0.371-0.822-0.822c0-0.451,0.371-0.822,0.822-0.822h11.329c0.451,0,0.822,0.371,0.822,0.822   C38.735,55.611,38.364,55.982,37.913,55.982z M37.913,52.356H26.584c-0.451,0-0.822-0.371-0.822-0.822s0.371-0.822,0.822-0.822   h11.329c0.451,0,0.822,0.371,0.822,0.822S38.364,52.356,37.913,52.356z M44.533,55.16c-1.229,0-2.225-0.996-2.225-2.225   c0-1.229,0.996-2.224,2.225-2.224c1.229,0,2.224,0.996,2.224,2.224C46.757,54.164,45.761,55.16,44.533,55.16z M17.156,48.155   l3.124-6.063c0.582-1.129,1.732-1.83,3.002-1.83H41.2c1.27,0,2.42,0.701,3.002,1.83l3.124,6.063H17.156z"/></g></svg>