<svg xmlns="http://www.w3.org/2000/svg" xmlns:xlink="http://www.w3.org/1999/xlink" version="1.1" x="0px" y="0px" viewBox="0 0 254.686 356.61625000000004" style="enable-background:new 0 0 254.686 285.293;" xml:space="preserve"><g><path d="M116.067,121.88c0.689,2.724,1.321,5.702,1.893,8.897c1.701-0.838,3.557-1.524,5.57-1.992V16.098h53.27v149.898h-21.802   c2.2,4.247,1.203,8.739-1.011,13.007h22.813v80.833h-53.27v-80.833h0.868c-0.46-2.155-0.993-4.071-1.585-5.103   c-6.557-1.146-8.157-7.218-8.592-11.876c-1.449-0.208-2.954-0.456-4.471-0.756v114.667h144.936V0H109.75v105.536   c2.373,4.068,4.554,9.383,6.312,16.328C116.064,121.87,116.066,121.875,116.067,121.88z M187.639,16.098h53.269v149.898h-53.269   V16.098z M187.639,179.003h53.269v80.833h-53.269V179.003z"/><path d="M133.641,128.326c11.324,1.461,15.752,8.174,17.561,15.281c1.809,0.127,3.24,1.619,3.24,3.46   c0,1.461-0.901,2.707-2.176,3.225c0.161,1.903,0.228,3.721,0.285,5.347c0.061,1.721,0.141,3.976,0.358,5.712h19.241V20.743h-43.975   V128.13c0.525-0.029,1.05-0.057,1.591-0.057C131.038,128.073,132.342,128.159,133.641,128.326z"/><rect x="192.285" y="20.743" width="43.975" height="140.607"/><path d="M140.836,197.583c-1.975,3.95-4.71,4.779-6.656,4.779c-3.083,0-4.86-1.499-6.004-3.947v56.777h43.975v-71.543h-21.037   c-1.414,2.005-2.944,3.912-4.349,5.661C144.432,192.214,142.019,195.219,140.836,197.583z"/><rect x="192.285" y="183.648" width="43.975" height="71.543"/><path d="M16.691,97.727l5.726,9.319V84.483h-17v8.727c0.839-0.22,1.703-0.345,2.577-0.345   C11.57,92.865,14.821,94.683,16.691,97.727z"/><rect x="9.168" y="78.983" width="9.5" height="3.75"/><path d="M90.342,96.408c0.235-0.013,0.48-0.021,0.735-0.021c1.494,0,3.326,0.255,5.316,1.07c0.56-1.058,1.036-2.166,1.424-3.315   c0.763-2.261,1.183-4.68,1.183-7.199c0-12.427-10.072-22.5-22.5-22.5c-12.426,0-22.5,10.073-22.5,22.5   c0,2.03,0.273,3.995,0.777,5.865c0.336,1.246,0.776,2.449,1.311,3.6H90.342z"/><path d="M69.184,182.658h4.635v90.271c0,6.83,5.537,12.363,12.363,12.363c6.828,0,12.365-5.533,12.365-12.363v-98v-18.94v-23.731   c0.684,0.389,1.427,0.668,2.2,0.846v18.976l1.86,0.851c4.53,2.071,11.419,3.115,16.277,3.623c0.024,0.562,0.041,1.161,0.055,1.805   c0.102,4.635,0.229,10.403,5.446,10.805c3.886,0.299,5.39,11.178,6.385,18.377c0.942,6.813,1.372,9.921,3.409,9.921   c1.098,0,1.792-1.105,2.274-2.069c1.416-2.833,3.996-6.045,6.491-9.151c5.513-6.863,11.214-13.961,6.778-19.382   c-1.756-2.146-1.908-6.47-2.069-11.048c-0.327-9.28-0.733-20.831-14.641-22.625c-1.092-0.141-2.185-0.213-3.246-0.213   c-7.037,0-12.364,3.079-15.737,6.719c-0.261-0.05-0.529-0.098-0.78-0.15c-0.813-6.091-1.818-11.518-3-16.188   c0-0.001-0.001-0.002-0.001-0.003c-5.667-22.398-15.198-24.826-19.838-24.542H52.184c-2.231,0-4.234,0.95-5.645,2.461   c-0.045,0.038-0.094,0.07-0.138,0.109l-19.541,17.098L14.817,98.878c-2.313-3.765-7.237-4.941-11.005-2.628   c-3.764,2.313-4.94,7.24-2.628,11.004l17,27.667c1.233,2.007,3.288,3.369,5.617,3.722c0.399,0.061,0.801,0.09,1.199,0.09   c1.924,0,3.8-0.695,5.268-1.979l14.187-12.413v31.649v18.94v98c0,6.83,5.537,12.363,12.363,12.363   c6.828,0,12.365-5.533,12.365-12.363V182.658z M129.768,135.173c0.968,0,1.966,0.065,2.965,0.194   c12.055,1.556,12.395,11.197,12.723,20.521c0.175,4.959,0.34,9.644,2.565,12.363c3.307,4.041-1.826,10.432-6.79,16.611   c-2.568,3.196-5.223,6.502-6.744,9.545c-0.076,0.151-0.145,0.278-0.206,0.386c-0.483-1.425-0.945-4.772-1.33-7.554   c-1.222-8.837-2.742-19.835-8.396-20.27c-3.005-0.231-3.303-3.579-3.415-8.66c-0.011-0.51-0.023-1.029-0.041-1.547   c1.434,0.121,2.531,0.186,3.088,0.215c0.142,0.007,0.282,0.011,0.422,0.011c4.227,0,7.757-3.312,7.98-7.582   c0.231-4.411-3.158-8.174-7.568-8.408c-2.311-0.122-5.413-0.422-8.336-0.859C119.71,137.362,124.124,135.173,129.768,135.173z"/></g></svg>