<svg xmlns="http://www.w3.org/2000/svg" xmlns:xlink="http://www.w3.org/1999/xlink" version="1.1" x="0px" y="0px" viewBox="0 0 100 125" enable-background="new 0 0 100 100" xml:space="preserve"><g><path d="M67.087,25.456c5.64,0,10.229-4.589,10.229-10.23c0-5.638-4.589-10.225-10.229-10.225c-5.643,0-10.234,4.587-10.234,10.225   C56.853,20.867,61.444,25.456,67.087,25.456z"/><path d="M89.548,53.423L74.066,30.634c-0.527-0.778-1.446-1.196-2.365-1.084c-0.499,0.057-0.974,0.264-1.352,0.589l-11.608,4.801   L45.02,34.382V30.18c0-0.663-0.268-1.31-0.738-1.779c-0.469-0.464-1.113-0.73-1.772-0.73h-9.918c-0.667,0-1.314,0.268-1.772,0.73   c-0.47,0.467-0.739,1.116-0.739,1.779v13.222c0,0.661,0.269,1.31,0.735,1.777c0.461,0.465,1.109,0.732,1.777,0.732h9.918   c0.67,0,1.3-0.262,1.773-0.738c0.475-0.477,0.737-1.107,0.737-1.772v-3.998l14.161,0.575l0.811-0.145l9.963-4.103l4.399,22.334   L60.32,73.071l-0.478,0.759L53.84,91.686c-0.441,1.309,0.265,2.736,1.593,3.189c1.341,0.427,2.739-0.32,3.163-1.588l5.76-17.188   l11.192-11.965l1.421,7.22l5.042,21.695c0.257,1.147,1.262,1.949,2.444,1.949c0.172,0,0.347-0.02,0.565-0.064   c0.654-0.15,1.208-0.546,1.564-1.116c0.355-0.57,0.467-1.244,0.315-1.898L81.873,70.3l-5.333-27.087l8.846,13.02   c0.747,1.108,2.373,1.426,3.486,0.674C90.017,56.133,90.318,54.569,89.548,53.423z"/><path d="M10.026,56.778h4.074c0.248,0,0.49,0.1,0.667,0.275c0.173,0.171,0.275,0.42,0.275,0.665v33.828h24.845V57.718   c0-0.247,0.101-0.488,0.285-0.67c0.167-0.169,0.415-0.271,0.661-0.271H44.9v-3.772H10.026V56.778z M31.757,57.431   c0-0.951,0.768-1.725,1.722-1.725s1.728,0.774,1.728,1.725v29.795c0,0.954-0.774,1.728-1.728,1.728s-1.722-0.774-1.722-1.728   V57.431z M19.723,57.431c0-0.951,0.774-1.725,1.728-1.725c0.951,0,1.725,0.774,1.725,1.725v29.798c0,0.954-0.774,1.723-1.725,1.723   c-0.954,0-1.728-0.769-1.728-1.723V57.431z"/></g></svg>