<svg xmlns="http://www.w3.org/2000/svg" xmlns:xlink="http://www.w3.org/1999/xlink" version="1.1" x="0px" y="0px" viewBox="0 0 2048 2560" style="enable-background:new 0 0 2048 2048;" xml:space="preserve"><g><path d="M349.9,1306.2c28,39,34.2,75,27.3,109.4c-6.9,34.6-27,65.7-50.8,96.3c-12.6,16.2-6.8,52.1-2.5,79.3   c0.9,5.8,1.8,11.3,2.4,15.9c4.6,1.1,12.4,1.8,20.7,2.2l1.4,0.1c-12.6-15.4-8.7-27.2-2.6-45.9c0.9-2.9,2-6.1,2.6-8.4   c7.7-27.7,39-62.9,70.8-98.8c17.7-19.9,35.6-40.1,48.2-57.4c8.2-11.3,15.8-18,27.2-21.7c9.7-3.2,20-3.2,34.9-1.6   c13.2,1.4,48.5,2.6,89,4c78.9,2.7,176.2,6.1,190,17.4c10.7,8.8,30.5,43.1,49.5,80.3c22.7,44.5,45.6,95.5,49,110.2   c0.9,3.9,1.5,7.5,2.1,10.9c0.2,1.4-9.9,2.2-4.7,2.3l-0.4,23.9l0.5-24l0.3,0v0c0.7,0,1.4,0.1,2,0.1c13.8,0.3,42.4,0.8,42.9,0.1   c2.3-2.5-8-14-16.6-23.8c-10.8-12.2-20.6-23.2-22.3-37.2c-2.4-19.3-11.6-35.4-20.8-51.5c-16-27.9-31.9-55.7-26.3-101.7   c2.1-17.5,9.2-25.4,18.1-35.2c7.4-8.2,17.1-19,21.6-51.7c-0.1-25.7,2.8-51.3,12.2-77.3c9.5-26.2,25.5-52.3,51.6-78.3   c18-23.4,50.9-16,83.1-8.8c6.1,1.4,12.2,2.7,18.3,3.9c3.5,0.6,6.7,0.5,9.7-0.2c7-1.6,13.1-6.8,17.9-13.2   c5.6-7.4,9.1-15.7,10.4-22.6c0.4-2.1,0.5-3.6,0.4-4.2c-1.4-6-13.1,3-28.6-0.1c-28.8-5.9-59.4-12.2-72.1-31.2   c-3.7-5.6-6.6-11.1-9.4-16.7c-6.3-12.3-13-25.3-33.9-30.1c-38.7-8.8-51.2,10.9-66.7,35.2c-4.3,6.7-8.7,13.6-12,18.3   c-15.2,21.8-33.6,46.3-55.6,67.6c-22.6,21.9-48.6,40-78.2,48c-46.6,22-110.4,20.6-177.5,19.2c-47.3-1-96.5-2.1-139.9,5.5   c-22.3,3.9-41.5,16.3-55.9,33.3C363.3,1264.4,353.7,1284.9,349.9,1306.2L349.9,1306.2z M330.2,1406.2c1.1-5.7,1.7-11.6,1.5-17.6   c-2.4,5.2-5,10-7.9,14.4c-14.5,22.6-34.3,35.7-60.8,43.8c-12.6,3.9-26-3.2-29.9-15.8c-3.9-12.6,3.2-26,15.8-29.9   c15.6-4.8,26.9-12,34.6-24c9-14,14.5-35,17.5-66.1c3.3-34.2,17.5-68,39.9-94.2c21.4-25.1,50.2-43.5,84.1-49.4   c47.3-8.3,99.2-7.2,149.1-6.1c61.4,1.3,119.7,2.6,156.3-14.8c1.9-1.1,3.9-1.9,6.2-2.5l5.9,23.3l-5.8-23.3   c21.4-5.4,41.2-19.3,58.9-36.5c19-18.3,35.7-40.6,49.6-60.6c4.9-7.1,8-11.9,11-16.7c25.5-40,46-72.3,117.5-56.2   c42.8,9.7,54.7,32.8,66,54.8c2.2,4.4,4.5,8.7,6.8,12.2c1.7,2.5,22.3,6.8,41.7,10.8c31.1,6.4,60.2,12.4,65.7,36.1   c1.6,6.8,1.6,15,0,23.7c-2.5,13.5-9,29.4-19.2,42.9c-10.9,14.4-26.1,26.5-45.3,31c-9,2.1-18.7,2.5-29.2,0.6   c-6.2-1.1-13.1-2.7-20-4.2c-16.8-3.8-32.8-9.4-34.6-9c-0.9,1.4-2,2.7-3.2,3.8l-16.9-17.1l16.8,17.1c-21.3,21-34.1,41.6-41.5,61.9   c-7.2,19.8-9.4,39.9-9.4,60.3c0.2,1.8,0.1,3.6-0.1,5.4l-0.1,0c-6.4,48.8-21.8,65.9-33.6,79c-3.2,3.6-5.8,6.4-6.1,8.8   c-3.7,30.4,8.3,51.2,20.3,72.2c11.6,20.3,23.3,40.6,26.8,69.5c0.1,0.6,4.9,5.1,10.5,11.3c21.8,24.6,47.5,53.7,16.1,88   c-14.6,15.9-59.2,15.6-79.1,15.2c-0.7,0-1.4,0.1-2.1,0.1v0l-0.2,0l0-0.1h0v0c-34.5-0.7-37.6-18.3-41.7-42c-0.5-2.6-0.9-5.4-1.6-8.1   c-2.7-11.4-23.8-57.5-45.1-99.3c-16.5-32.4-32.2-60.8-37.3-65.1c-1.3-1.1-89.5-4.1-160.9-6.5c-42-1.4-78.5-2.7-92.6-4.2   c-8-0.9-12.7-1.1-14.8-0.4c-0.4,0.1-1.6,1.5-3.6,4.3c-14.2,19.5-32.7,40.3-51,60.9c-28.1,31.7-55.8,62.8-60.5,79.8   c-1.3,4.6-2.3,7.7-3.2,10.4c-1,3.1-1.6,4.9-0.6,5.7c2.7,2.3,1.6,1.4,2,1.7c7.2,5.9,16.6,13.5,20.5,25.2   c5.9,17.5,1.5,33.3-25.6,42.5c-9.8,3.3-26.6,4.5-42.4,3.9c-16.1-0.6-32.8-3.2-41.9-7.4c-8.6-4-13.9-8.2-18.4-15.7   c-3.5-6-4.9-11.8-6-20.3c-0.7-4.9-1.4-9.7-2.3-14.9c-5.8-36.1-13.5-83.7,11.8-116.3C308.5,1456.9,325.1,1431.6,330.2,1406.2   L330.2,1406.2z"/><path d="M1224.7,1447.6c53.5,0,102.4,4.6,138.2,12.1c45.9,9.6,74.3,27.4,74.3,51.2c0,23.8-28.4,41.6-74.3,51.2   c-35.8,7.5-84.7,12.1-138.2,12.1c-53.5,0-102.4-4.6-138.2-12.1c-45.9-9.6-74.3-27.4-74.3-51.2c0-23.8,28.4-41.6,74.3-51.2   C1122.3,1452.2,1171.2,1447.6,1224.7,1447.6z M1353.2,1506.5c-32.5-6.8-77.8-10.9-128.4-10.9c-47.6,0-90.7,3.4-122.6,9.8l-5.9,1.2   c-8.1,2.9-7.8,5.8,0,8.7c2.7,0.6,5.4,1.1,8.3,1.6c31.7,5.8,73.7,9.3,120.2,9.3c45.1,0,86.1-2.8,117.4-8.8l11.1-2.1   C1357.7,1512.2,1358,1509.3,1353.2,1506.5L1353.2,1506.5z"/><path d="M1381,1555.5c5.4-12.1,0-26.2-12.1-31.6c-12.1-5.4-26.2,0-31.6,12.1l-19.9,44.6c-30.8,4.7-61.5,7.1-92.1,7.1   c-30.8,0-61.9-2.3-93.3-7.1l-19.9-44.5c-5.4-12.1-19.5-17.5-31.6-12.1c-12.1,5.4-17.5,19.5-12.1,31.6l24.3,54.6   c2.8,7.9,9.7,14.2,18.6,15.7l4.1-23.7l-4,23.6c37.9,6.5,75.9,9.7,113.9,9.7c37.6,0,74.8-3.2,111.5-9.5c8.1-1,15.6-6,19.1-14.1   l-0.1,0L1381,1555.5L1381,1555.5z"/><path d="M1613.4,896.6c32.3,50.4,47.5,94.8,45.8,137.7c-1.8,47-23.3,89.4-64.2,132.8c-26.3,35.1-37.8,66.4-40.6,95.1   c-2.9,29.2,3.1,57.2,11.6,84.2c11.6,36.9,25,72.5,40.5,108.1c15.5,35.6,33.4,72.4,53.9,111.2l0.1,0c0.8,1.5,1.5,3,2,4.6   c5.5,13.4,15.6,19.8,25.5,20.3c4.4,0.2,8.7-0.5,12.6-2.2c3.6-1.6,6.9-4,9.3-7.1c6.6-8.6,7.6-23.9-3.1-45.6   c-20.9-42.5-40.5-93.8-52.7-141.2c-11.1-43.3-16-84.1-10.5-114c6.2-33.2,27.4-64.1,53.3-101.6c13.4-19.4,28.2-40.8,41.9-64.2   c55.7-94.8-9.6-192.2-109.2-340.9c-16-23.9-32.8-48.9-44-66.1c-6.4-9.7-16.1-15.9-26.6-18.1c-10.5-2.2-21.9-0.3-31.7,6.1   c-8.1,5.3-13.8,13-16.7,21.5c-3,8.8-3.1,18.5,0,27.4c0.6,1.8,3.2,6,5.8,10.2c7.8,12.7,15.6,25.6,14.7,42.3   c-1.7,31.4-13.2,53.2-31.5,68.6c-16.8,14.1-38.2,21.1-62.3,24.5l0,0l0,0l0,0.1c-0.8,0.1-1.5,0.2-2.3,0.2c-23.6,3.1-37.1,2-49.8,0.9   c-11.5-0.9-22.1-1.8-43.2,3c-5.3,1.2-9.7,4.4-12.3,8.7c-2.7,4.3-3.8,9.7-2.6,15c1.2,5.3,4.4,9.7,8.7,12.3c4.3,2.7,9.7,3.8,15,2.6   l0-0.1c3.3-0.7,6.6-0.9,9.9-0.7c17.1,0,29.1,0.4,39.1,0.7c22.9,0.8,34.1,1.1,67.7-5.7c27.8-5.7,51.8-15.3,69.2-31.7   c16.9-16,28.6-39.8,32.9-74.9c2.1-17.5,18-30.1,35.5-28c17.5,2.1,30.1,18,28,35.5C1629.6,854.7,1623,877.3,1613.4,896.6   L1613.4,896.6z M1595.5,1032.1c0.9-24.5-7.2-51.3-24.6-82.3c-25.5,20.7-56.6,32.8-90.9,39.8c-40.9,8.4-54.6,7.9-82.4,7   c-9.8-0.3-21.5-0.7-36.7-0.7c-21.3,3.8-42.2-0.8-59.3-11.6c-18.1-11.5-31.9-29.8-36.9-52.3c-5.1-22.5-0.5-44.9,10.9-63   c11.5-18.1,29.8-31.9,52.3-36.9c31-7,46-5.8,62.2-4.5c9.6,0.8,19.9,1.6,36.3-0.5c0.7-0.1,1.3-0.2,2-0.3l0.1,0.1   c12.8-1.8,23.4-4.8,29.9-10.2c5-4.2,8.2-11.3,8.8-22.8c0.2-2.9-2.8-1.4-5.5-5.8c-4.3-7.1-8.6-14.2-11.5-22.5   c-7.9-22.7-7.7-47-0.2-68.9c7.4-21.6,21.7-41,42.2-54.5c24.4-16,53.1-20.6,79.7-15.1c26.6,5.5,51.1,21.2,67.1,45.6   c18.9,28.8,31.5,47.6,43.5,65.6c113.1,168.8,187.2,279.4,111.2,408.7c-15.2,25.9-30.5,48.1-44.4,68.2   c-21.6,31.4-39.4,57.2-43.1,76.9c-3.8,20.3,0.5,51.7,9.5,86.7c11,42.7,28.9,89.6,48.2,128.7c23.3,47.3,16.6,86.6-3.7,112.9   c-9.1,11.9-21,20.9-34.3,26.6c-13,5.7-27.3,8.3-41.6,7.5c-32.9-1.8-65.5-20.9-81.5-60.8c-20.3-38.5-38.5-76-54.9-113.9   c-16.7-38.5-31-76.2-43-114.4c-10.6-33.8-18-69.6-14.1-109.4c3.9-39.5,18.9-81.5,52.8-126.9c1-1.5,2.2-3,3.5-4.4l0.1,0.1   C1578.2,1092.3,1594.4,1062.7,1595.5,1032.1L1595.5,1032.1z"/><path d="M1336.9,463.7c-15.1,12.8-23.7,30.6-25.2,48.9c-1.5,17.9,3.6,36.3,15.6,51.2c0.4,0.4,0.8,0.9,1.2,1.3l0,0   c0.4,0.4,0.7,0.9,1.1,1.4c12.7,14.3,29.9,22.4,47.8,23.8c17.9,1.5,36.3-3.6,51.2-15.6c0.4-0.4,0.9-0.8,1.3-1.2l0,0   c0.4-0.4,0.9-0.7,1.4-1.1c14.3-12.7,22.4-29.9,23.8-47.7c1.5-17.9-3.6-36.3-15.6-51.2c-0.8-0.9-1.6-1.8-2.3-2.7   c-12.7-14.3-29.9-22.4-47.8-23.8C1370.9,445.4,1352,450.9,1336.9,463.7L1336.9,463.7z M1247.9,507.3c2.9-34.6,19-68.2,47.7-92.4   c28.7-24.3,64.4-34.6,99-31.7c33.9,2.8,66.7,18.3,90.8,45.8c0.6,0.6,1.1,1.2,1.7,1.8l-0.1,0c24.2,28.7,34.6,64.4,31.7,99   c-2.8,33.9-18.3,66.7-45.8,90.8c-0.6,0.6-1.2,1.1-1.8,1.7l0-0.1c-28.7,24.2-64.4,34.6-99,31.7c-33.9-2.8-66.7-18.3-90.8-45.8   c-0.6-0.6-1.1-1.2-1.7-1.8l0.1,0C1255.4,577.6,1245,541.9,1247.9,507.3L1247.9,507.3z"/></g></svg>