<svg xmlns="http://www.w3.org/2000/svg" xmlns:xlink="http://www.w3.org/1999/xlink" xml:space="preserve" version="1.1" style="shape-rendering:geometricPrecision;text-rendering:geometricPrecision;image-rendering:optimizeQuality;" viewBox="0 0 329 361.25" x="0px" y="0px" fill-rule="evenodd" clip-rule="evenodd"><defs><style type="text/css">
   
    .fil0 {fill:black}
    .fil1 {fill:black;fill-rule:nonzero}
    .fil2 {fill:black;fill-rule:nonzero}
   
  </style></defs><g><path class="fil0" d="M140 210c1,-1 1,-1 2,-2l-2 0 0 2z"/><path class="fil0" d="M134 213c1,-1 2,-1 4,-2l0 -2 -4 1 0 3z"/><path class="fil0" d="M128 213c1,1 2,0 4,0l0 -3 -4 1 0 2z"/><path class="fil0" d="M123 212c1,1 2,1 3,1l0 -1 -3 0z"/><path class="fil0" d="M141 206l2 0c1,-2 2,-3 3,-5l-4 1 -1 4z"/><polygon class="fil0" points="135,208 139,207 140,202 136,203 "/><polygon class="fil0" points="129,209 133,208 134,203 130,204 "/><polygon class="fil0" points="123,211 127,210 128,205 124,206 "/><path class="fil0" d="M117 209c1,1 2,1 3,2l1 0 1 -5 -4 1 -1 2z"/><path class="fil0" d="M142 200l4 -1c0,0 0,0 0,-1 0,-1 0,-2 0,-4l-3 1 -1 5z"/><polygon class="fil0" points="136,201 140,200 141,195 137,196 "/><polygon class="fil0" points="130,202 134,202 135,197 131,198 "/><polygon class="fil0" points="124,204 128,203 129,198 125,199 "/><polygon class="fil0" points="118,205 122,204 123,200 119,200 "/><path class="fil0" d="M114 205c0,0 1,1 1,1l1 0 1 -5 -2 0 -1 4z"/><path class="fil0" d="M144 193l2 0c0,-2 -1,-3 -1,-4l-1 4z"/><polygon class="fil0" points="138,194 142,193 143,189 139,190 "/><polygon class="fil0" points="132,196 136,195 137,190 133,191 "/><polygon class="fil0" points="126,197 130,196 131,191 127,192 "/><polygon class="fil0" points="120,199 124,198 125,193 121,194 "/><polygon class="fil0" points="115,200 118,199 119,194 116,195 "/><path class="fil0" d="M112 196c0,1 0,3 0,4l1 0 1 -5 -2 1z"/><path class="fil0" d="M139 188l4 -1c-1,-2 -2,-3 -3,-4l-1 5z"/><polygon class="fil0" points="133,189 137,188 138,183 134,184 "/><polygon class="fil0" points="127,190 131,190 132,185 128,186 "/><polygon class="fil0" points="121,192 125,191 126,186 122,187 "/><polygon class="fil0" points="117,193 119,192 120,188 118,188 "/><path class="fil0" d="M114 189c-1,2 -2,3 -2,5l3 -1 1 -4 -2 0z"/><path class="fil0" d="M117 184c-1,1 -2,2 -2,3l1 0 1 -3z"/><path class="fil0" d="M135 182l3 0c-1,-1 -2,-1 -3,-2l0 2z"/><path class="fil0" d="M122 181c-1,0 -2,1 -3,1l-1 4 3 0 1 -5z"/><path class="fil0" d="M128 179c-1,0 -3,1 -4,1l-1 5 4 -1 1 -5z"/><path class="fil0" d="M131 179c0,0 -1,0 -1,0l-1 5 4 -1 1 -3c-1,0 -2,-1 -3,-1z"/><path class="fil0" d="M147 190c0,0 7,-1 9,-8 2,-6 8,-5 8,-5 -12,-9 -14,5 -21,6l2 3c8,-2 2,-8 12,-9 -8,3 -3,8 -11,10l1 3z"/><path class="fil0" d="M147 190c0,0 7,-1 9,-8 2,-6 8,-5 8,-5 -12,-9 -14,5 -21,6l2 3c8,-2 2,-8 12,-9 -8,3 -3,8 -11,10l1 3z"/><path class="fil0" d="M147 190c0,0 7,-1 9,-8 2,-6 8,-5 8,-5 -12,-9 -14,5 -21,6l2 3c8,-2 2,-8 12,-9 -8,3 -3,8 -11,10l1 3z"/><path class="fil0" d="M147 190c0,0 7,-1 9,-8 2,-6 8,-5 8,-5 -12,-9 -14,5 -21,6l2 3c8,-2 2,-8 12,-9 -8,3 -3,8 -11,10l1 3z"/><path class="fil0" d="M147 190c0,0 7,-1 9,-8 2,-6 8,-5 8,-5 -12,-9 -14,5 -21,6l2 3c8,-2 2,-8 12,-9 -8,3 -3,8 -11,10l1 3z"/><path class="fil0" d="M147 190c0,0 7,-1 9,-8 2,-6 8,-5 8,-5 -12,-9 -14,5 -21,6l2 3c8,-2 2,-8 12,-9 -8,3 -3,8 -11,10l1 3z"/><path class="fil0" d="M147 190c0,0 7,-1 9,-8 2,-6 8,-5 8,-5 -12,-9 -14,5 -21,6l2 3c8,-2 2,-8 12,-9 -8,3 -3,8 -11,10l1 3z"/><path class="fil0" d="M117 211c0,0 -5,4 -4,11 1,7 -4,9 -4,9 15,1 9,-12 15,-16l-3 -2c-6,6 2,8 -6,14 5,-7 -1,-9 5,-15l-3 -1z"/><path class="fil0" d="M132 178c0,0 3,-6 -2,-12 -4,-5 0,-9 0,-9 -14,6 -2,14 -5,21l3 0c2,-9 -6,-7 -1,-15 -2,8 5,6 3,15l2 0z"/><path class="fil0" d="M136 214c0,0 1,7 7,9 7,3 6,8 6,8 8,-12 -6,-14 -6,-21l-3 2c2,8 8,3 8,12 -2,-8 -8,-3 -10,-11l-2 1z"/><path class="fil0" d="M114 184c-1,-1 -4,-5 -10,-4 -7,1 -9,-4 -9,-4 -1,15 11,9 16,15l0 0c0,-1 0,-2 1,-3 -6,-6 -8,2 -13,-6 6,5 8,-1 14,4 0,0 1,-1 1,-2z"/><path class="fil0" d="M148 199c1,1 7,3 11,-1 6,-5 10,-1 10,-1 -6,-14 -15,-2 -21,-5l0 0c0,1 0,2 0,3 8,2 6,-5 15,-1 -8,-2 -7,5 -15,3 0,0 0,1 0,2 0,0 0,0 0,0z"/><path class="fil0" d="M111 203c-1,0 -7,2 -9,7 -2,7 -8,6 -8,6 13,8 14,-6 21,-6l0 0c-1,-1 -1,-2 -2,-3 -7,2 -2,8 -12,8 8,-2 4,-7 11,-9 0,-1 0,-2 -1,-3z"/><path class="fil0" d="M141 181c1,0 6,-4 4,-10 -1,-7 5,-9 5,-9 -15,-1 -10,12 -15,16l0 0c1,0 2,1 3,1 5,-6 -2,-8 6,-13 -6,6 1,8 -5,14 1,0 2,1 2,1z"/><path class="fil0" d="M126 215c0,2 -2,7 2,12 4,5 1,9 1,9 13,-6 2,-14 5,-21l0 0 0 0c-1,0 -1,0 -1,0l0 0c0,0 0,0 0,0l0 0 0 0 -1 0 0 0c0,0 0,0 0,0l0 0 0 0 -1 1 0 0 0 0c0,0 0,0 0,0l0 0 0 0c0,0 -1,0 -1,0l0 0 0 0 0 0c-1,7 6,5 2,14 2,-8 -5,-7 -3,-14l0 0 0 0 0 0 0 0 0 0 0 0 0 0 -1 0 0 0 0 0 0 0 0 0 0 0 0 0 0 0 0 0 0 0 0 0c0,0 0,0 -1,0l0 0 0 0 0 0 0 0c0,0 0,0 0,0l0 0 0 0c0,-1 0,-1 0,-1l-1 0 0 0 0 0 0 0 0 0 0 0 0 0 0 0 0 0 0 0z"/><path class="fil0" d="M122 178c0,-1 -1,-6 -7,-8 -6,-3 -5,-9 -5,-9 -9,13 5,14 6,21l0 0c1,0 2,-1 3,-2 -3,-7 -8,-2 -9,-12 3,8 8,4 10,11 1,0 2,0 2,-1z"/><path class="fil0" d="M144 209c1,1 5,5 11,4 7,-2 8,4 8,4 2,-15 -11,-9 -15,-15l0 0c-1,1 -1,2 -2,3 6,5 8,-2 14,6 -7,-6 -9,1 -14,-5 -1,1 -1,2 -2,3z"/><path class="fil0" d="M110 193c-1,0 -6,-2 -11,2 -6,5 -10,1 -10,1 7,13 15,2 21,5l0 0c0,-1 0,-2 0,-3 -8,-2 -6,5 -15,1 9,2 7,-5 15,-3 0,-1 0,-1 0,-2 0,0 0,0 0,-1z"/><path class="fil1" d="M36 174c-1,-1 -2,-3 -3,-4 -4,-3 -9,-2 -11,3 0,1 0,3 0,5 -2,-1 -4,-2 -5,-2 -5,-2 -9,2 -8,7 0,2 1,3 2,5 -2,0 -4,0 -5,0 -6,2 -7,7 -3,11 0,1 2,2 3,3 -1,1 -3,2 -4,3 -4,4 -2,9 3,11 1,0 3,0 4,0 0,2 -1,3 -1,5 -2,5 2,9 7,8 2,0 3,-1 5,-2 -1,2 0,4 0,5 2,6 7,7 11,3 1,-1 2,-2 3,-3 1,1 2,3 3,4 4,3 9,2 11,-3 0,-1 0,-3 0,-5 2,1 3,2 5,2 5,2 9,-2 8,-7 0,-2 -1,-3 -2,-5 2,0 4,0 5,0 5,-2 7,-7 3,-11 -1,-1 -2,-2 -3,-3 1,-1 3,-2 4,-3 3,-4 2,-9 -3,-11 -1,0 -3,0 -5,0 1,-2 2,-3 2,-5 1,-5 -2,-9 -7,-8 -2,0 -3,1 -5,2 0,-2 0,-4 0,-5 -2,-6 -7,-7 -11,-3 -1,1 -2,2 -3,3zm10 12c3,-3 6,-5 9,-6 3,-1 5,1 4,4 0,4 -3,7 -6,10 4,-1 8,-2 11,-1 3,1 4,4 1,6 -2,3 -6,4 -9,5 3,1 7,2 9,5 2,3 2,5 -2,6 -3,1 -7,0 -11,-1 3,3 5,6 6,9 1,4 -1,5 -5,5 -3,-1 -6,-4 -9,-7 1,4 2,8 1,11 -1,3 -4,4 -6,2 -3,-3 -4,-7 -5,-10 -1,3 -2,7 -5,9 -3,2 -5,2 -6,-2 -1,-3 0,-7 1,-11 -3,3 -6,5 -9,6 -4,1 -5,-1 -5,-4 1,-4 4,-7 7,-10 -4,1 -8,2 -11,1 -3,-1 -4,-4 -2,-6 3,-3 7,-4 10,-5 -3,-1 -7,-2 -9,-5 -2,-3 -2,-5 2,-6 3,-1 7,0 11,1 -3,-3 -5,-6 -6,-9 -1,-4 1,-5 4,-4 4,0 7,3 9,6 0,-4 -1,-8 0,-11 1,-3 4,-4 6,-1 3,2 4,6 5,9 1,-3 2,-7 5,-9 3,-2 5,-2 6,2 1,3 0,7 -1,11z"/><circle class="fil0" transform="matrix(-0.434933 0.114211 0.114211 0.434933 34.8918 203.018)" r="27"/><path class="fil2" d="M212 159c0,-1 1,-3 3,-4 4,-3 9,-2 10,3 1,1 1,3 1,5 2,-1 3,-2 5,-2 5,-1 9,2 8,7 -1,2 -1,3 -2,5 2,0 4,0 5,0 5,2 7,7 3,11 -1,1 -2,2 -4,3 2,1 3,2 4,3 4,4 3,9 -2,11 -2,0 -3,1 -5,1 1,1 2,3 2,4 1,6 -2,9 -8,8 -1,0 -2,-1 -4,-1 0,1 0,3 0,4 -2,6 -7,7 -11,4 -1,-1 -2,-3 -3,-4 -1,2 -2,3 -3,4 -4,4 -9,3 -11,-3 0,-1 -1,-3 -1,-4 -1,1 -3,1 -4,2 -6,1 -9,-3 -8,-8 0,-1 1,-3 1,-4 -1,0 -3,-1 -5,-1 -5,-2 -6,-6 -3,-11 1,-1 2,-2 4,-3 -2,-1 -3,-2 -4,-3 -4,-4 -3,-9 3,-10 1,-1 3,-1 4,-1 -1,-2 -1,-3 -2,-5 -1,-5 2,-9 8,-8 1,0 3,1 4,2 0,-2 1,-4 1,-5 2,-5 6,-7 11,-3 1,1 2,2 3,3zm7 6c1,1 2,1 4,2 0,-3 0,-6 0,-8 -2,-3 -4,-4 -6,-1 -2,1 -3,4 -4,7 2,0 4,0 6,0zm5 3c4,1 6,4 8,7 2,-2 3,-5 4,-7 0,-3 -1,-5 -5,-4 -2,0 -5,2 -7,4zm9 8c2,3 3,7 3,10 3,-1 5,-2 7,-4 2,-2 1,-5 -2,-6 -3,-1 -5,0 -8,0zm3 12c0,2 0,4 0,6 -1,2 -1,3 -2,4 3,1 5,1 8,0 3,-1 4,-3 1,-6 -2,-2 -4,-3 -7,-4zm-3 12c-2,3 -4,6 -7,8 2,1 4,3 7,3 3,1 5,-1 4,-4 0,-3 -2,-5 -4,-7zm-8 9c-3,1 -7,2 -10,3 1,2 2,5 4,6 2,3 5,2 6,-1 0,-3 0,-6 0,-8zm-12 3c-2,0 -4,0 -6,-1 -2,0 -3,-1 -4,-1 -1,2 -1,5 0,7 1,4 3,4 6,2 2,-2 3,-5 4,-7zm-12 -3c-3,-2 -6,-5 -8,-7 -1,2 -3,4 -3,6 -1,4 1,5 4,5 3,-1 5,-3 7,-4zm-9 -9c-1,-3 -2,-6 -3,-10 -2,1 -5,2 -6,4 -3,3 -2,5 1,6 3,1 6,1 8,0zm-3 -12c0,-2 0,-4 1,-6 0,-1 1,-3 1,-4 -2,0 -5,-1 -7,0 -4,1 -4,4 -2,6 2,2 5,3 7,4zm3 -12c2,-3 4,-5 7,-7 -2,-2 -4,-3 -7,-4 -3,-1 -5,1 -4,5 1,2 2,4 4,6zm9 -8c3,-2 6,-3 10,-3 -1,-3 -2,-5 -4,-7 -3,-2 -5,-2 -6,2 -1,2 -1,5 0,8z"/><polygon class="fil0" points="297,205 297,205 297,205 "/><path class="fil0" d="M303 203c-1,1 -2,1 -3,1l-1 -1 2 -2 2 2z"/><path class="fil0" d="M308 201c-1,0 -2,1 -3,1l-3 -2 2 -3 4 4z"/><path class="fil0" d="M311 196c-1,1 -1,2 -2,3l-3 -3 2 -2 3 2z"/><path class="fil0" d="M313 191c-1,1 -1,2 -1,3l-2 -2 2 -2 1 1z"/><path class="fil0" d="M296 203l-2 1c-1,0 -2,0 -3,-1l3 -2 2 2z"/><polygon class="fil0" points="299,200 297,202 295,200 297,198 "/><polygon class="fil0" points="303,196 301,198 299,196 301,194 "/><polygon class="fil0" points="307,192 305,194 303,192 305,190 "/><polygon class="fil0" points="310,189 308,191 306,189 308,187 "/><path class="fil0" d="M311 184c1,1 1,2 1,3l0 0 -2 -2 1 -1z"/><path class="fil0" d="M293 175c1,0 2,0 3,-1l1 1 -3 2 -1 -2z"/><path class="fil0" d="M288 178c1,-1 2,-2 3,-2l2 2 -2 3 -3 -3z"/><path class="fil0" d="M285 182c0,-1 1,-2 1,-3l3 3 -2 2 -2 -2z"/><path class="fil0" d="M283 187c0,-1 0,-2 1,-3l2 2 -3 2 0 -1z"/><path class="fil0" d="M300 175l0 0c1,0 2,0 3,0l-1 2 -2 -2z"/><polygon class="fil0" points="296,178 298,176 300,178 298,180 "/><polygon class="fil0" points="292,182 294,180 296,182 294,184 "/><polygon class="fil0" points="289,186 291,183 293,185 291,188 "/><polygon class="fil0" points="285,189 287,187 289,189 287,191 "/><path class="fil0" d="M283 195c0,-1 0,-2 0,-3l0 -1 2 2 -2 2z"/><path class="fil0" d="M303 178l2 -2c1,1 1,1 2,2l-2 2 -2 -2z"/><polygon class="fil0" points="299,182 302,180 304,182 301,184 "/><polygon class="fil0" points="296,185 298,183 300,185 298,187 "/><polygon class="fil0" points="292,189 294,187 296,189 294,191 "/><polygon class="fil0" points="288,193 291,191 292,193 290,195 "/><path class="fil0" d="M286 199c-1,-1 -1,-1 -2,-2l3 -3 2 2 -3 3z"/><path class="fil0" d="M292 200l-2 2c-1,0 -2,-1 -3,-1l3 -3 2 2z"/><polygon class="fil0" points="296,196 294,198 292,196 294,194 "/><polygon class="fil0" points="300,192 297,195 295,193 298,190 "/><polygon class="fil0" points="303,189 301,191 299,189 301,187 "/><polygon class="fil0" points="307,185 305,187 303,185 305,183 "/><path class="fil0" d="M309 179c0,1 1,2 1,3l-2 2 -2 -2 3 -3z"/><path class="fil1" d="M291 165c0,-2 1,-3 2,-4 2,-4 7,-4 10,0 0,1 1,3 1,4 1,-1 2,-2 4,-3 4,-2 8,1 8,5 0,2 0,3 -1,5 2,-1 4,-1 5,-1 5,0 7,4 5,9 -1,1 -2,2 -3,3 2,0 3,1 4,2 4,3 4,7 0,10 -1,0 -2,1 -4,1 1,1 2,2 3,4 2,4 0,8 -5,8 -2,0 -3,0 -5,0 1,1 1,3 1,4 0,5 -4,7 -9,5 -1,-1 -2,-2 -3,-3 0,2 -1,3 -2,4 -2,4 -7,4 -10,0 0,-1 -1,-2 -1,-4 -1,1 -2,2 -4,3 -4,2 -8,0 -8,-5 0,-2 0,-3 1,-4 -2,0 -3,0 -5,0 -5,0 -7,-4 -5,-9 1,-1 2,-2 3,-3 -2,0 -3,-1 -4,-2 -4,-2 -4,-7 0,-9 1,-1 2,-2 4,-2 -1,-1 -2,-2 -3,-4 -2,-4 0,-8 5,-8 2,0 3,0 5,1 -1,-2 -1,-3 -1,-5 0,-5 4,-7 9,-5 1,1 2,2 3,3zm-7 12c-2,-2 -5,-3 -8,-3 -3,0 -4,2 -3,4 1,3 4,5 7,7 -3,0 -7,0 -10,2 -2,1 -2,3 0,5 3,2 7,2 10,2 -3,2 -6,4 -7,7 -2,2 -1,4 2,4 4,1 7,-1 10,-2 -2,2 -4,5 -3,9 0,2 2,4 4,2 3,-1 5,-4 7,-7 0,3 0,7 2,10 1,2 3,2 5,0 2,-3 2,-7 2,-10 2,3 4,6 7,7 2,2 4,1 4,-2 1,-4 -1,-7 -2,-10 2,2 5,4 9,3 2,0 4,-2 2,-4 -1,-3 -4,-5 -7,-7 3,0 7,0 10,-2 2,-1 2,-3 0,-5 -3,-2 -7,-2 -10,-2 3,-2 6,-4 7,-7 2,-2 1,-4 -2,-4 -4,-1 -7,1 -10,3 2,-3 4,-6 3,-9 0,-3 -2,-4 -4,-3 -3,1 -5,4 -7,7 0,-3 0,-7 -2,-9 -1,-3 -3,-3 -5,-1 -2,3 -2,7 -2,10 -2,-3 -4,-6 -7,-7 -2,-2 -4,-1 -4,2 -1,4 1,7 2,10z"/><path class="fil0" d="M20 284l30 0c2,-6 2,-12 2,-19 0,-1 -2,-3 -6,-3 -5,0 -6,2 -12,-1 -5,-3 -9,-13 -9,-13 4,3 6,6 12,5 4,0 8,1 9,2 2,2 5,6 7,9 0,-9 -1,-19 -4,-33l1 -1c4,12 6,21 6,30 1,-2 4,-6 5,-8 1,-2 5,-3 10,-3 5,0 7,-3 11,-6 0,0 -3,10 -8,13 -6,4 -7,2 -12,2 -4,1 -5,3 -6,4 0,8 0,15 -1,22l63 0c-2,-10 -2,-19 -2,-29 -1,-2 -3,-4 -7,-4 -6,-1 -8,2 -14,-3 -6,-4 -10,-16 -10,-16 5,4 7,7 14,8 5,0 9,1 11,3 2,2 4,7 6,10 0,-11 2,-22 7,-36l1 1c-4,17 -5,29 -4,39 2,-2 6,-8 8,-10 1,-1 6,-2 11,-2 6,0 9,-3 14,-6 0,0 -4,11 -11,15 -7,4 -8,1 -14,1 -4,0 -7,2 -8,4 1,9 1,16 3,25l69 0c-1,-11 -1,-20 -1,-31 -1,-1 -4,-4 -7,-4 -6,-1 -8,2 -15,-2 -6,-5 -9,-17 -9,-17 4,4 7,8 13,8 5,0 10,2 11,3 2,3 5,7 7,10 0,-10 2,-21 7,-35l1 0c-4,17 -5,30 -5,39 2,-2 6,-7 8,-9 2,-2 6,-3 12,-3 6,0 9,-3 13,-6 0,0 -4,12 -11,15 -6,4 -8,1 -14,1 -4,0 -6,2 -7,4 0,10 1,17 3,27l86 0c-1,-10 -2,-19 -2,-29 -1,-2 -3,-4 -7,-4 -6,-1 -7,2 -14,-3 -6,-4 -9,-16 -9,-16 4,4 7,7 13,8 5,0 9,1 11,3 2,2 5,7 6,10 1,-11 3,-22 8,-35l1 0c-4,17 -5,29 -5,39 2,-2 6,-8 8,-10 2,-1 6,-2 11,-2 7,0 9,-3 14,-6 0,0 -4,11 -11,15 -6,4 -8,1 -14,1 -4,0 -6,2 -8,4 1,9 1,16 4,25l22 0 0 5 -292 0 0 -5z"/><path class="fil0" d="M257 19l7 3c20,-45 27,-12 37,22l5 4c11,6 16,16 12,23l-18 30c-4,7 -16,8 -26,1l-9 -5 -50 11 -2 -8 37 -12 -25 -15c3,-20 15,-41 32,-54zm14 8l18 10c-5,-44 -15,-20 -18,-10z"/><path class="fil0" d="M202 114l-3 -12c-1,-1 0,-3 2,-3l9 2 2 8 -6 7c-1,1 -3,0 -4,-2z"/><path class="fil0" d="M223 35c1,-2 5,-3 8,-1 3,2 5,6 3,8 -1,2 -5,3 -8,1 -3,-2 -5,-5 -3,-8z"/><polygon class="fil1" points="195,106 188,106 188,103 195,103 "/><polygon class="fil1" points="183,107 177,109 176,106 183,104 "/><polygon class="fil1" points="195,112 189,114 188,111 194,109 "/><polygon class="fil1" points="185,117 179,120 177,118 183,114 "/><polygon class="fil1" points="199,117 196,123 193,122 197,116 "/><polygon class="fil1" points="195,126 191,132 188,131 192,125 "/><polygon class="fil1" points="190,135 186,141 184,140 187,134 "/><polygon class="fil1" points="176,124 172,129 169,127 174,122 "/><polygon class="fil1" points="172,111 166,114 164,112 170,108 "/><polygon class="fil1" points="163,118 158,124 156,122 160,116 "/></g></svg>