<svg xmlns="http://www.w3.org/2000/svg" xmlns:xlink="http://www.w3.org/1999/xlink" version="1.1" x="0px" y="0px" viewBox="0 0 100 125" enable-background="new 0 0 100 100" xml:space="preserve"><path d="M64.5480957,34.3505859c-0.1811523-0.8515625-0.6767616-1.4921875-1.3593788-1.7578125  c-0.0183105-0.0073242-0.0375977-0.0073242-0.0559082-0.0136719c0.3476563-1.7304688,1.092289-6.4819336-0.1162109-10.8330078  c0.0224609-0.0249023,0.0495605-0.0439453,0.0705566-0.0703125c0.3334961-0.4165039,0.4584961-0.9541016,0.3422852-1.4746094  l-0.6186523-2.7832031c-0.1306152-0.5864258-0.541748-1.0366211-1.0715332-1.2431641l-0.8591309-4.9892578  c1.0986328-0.8076172,1.71875-1.9248047,1.71875-3.1279297c0-2.3574219-2.3974609-4.2753906-5.3447266-4.2753906  c-1.3583984,0-2.644043,0.4121094-3.6269531,1.1464844c-0.9829102-0.734375-2.2685547-1.1464844-3.6274414-1.1464844  c-1.3583984,0-2.644043,0.4121094-3.6269531,1.1464844c-0.9833984-0.734375-2.269043-1.1464844-3.6274414-1.1464844  c-2.9472656,0-5.3447266,1.9179688-5.3447266,4.2753906c0,1.203125,0.6201172,2.3203125,1.71875,3.1279297l-0.8591309,4.9897461  c-0.529541,0.206543-0.9404297,0.6567383-1.0710449,1.2431641l-0.6191406,2.7822266  c-0.1162109,0.5209961,0.0087891,1.0585938,0.3427734,1.4750977c0.0058594,0.0073242,0.013916,0.0126953,0.0200195,0.0195313  c-1.1696777,4.4477539-0.3464355,9.3203125-0.0234375,10.8740234c-0.0319824,0.0102539-0.0664063,0.0107422-0.0981445,0.0229492  c-1.3359375,0.5205078-1.8242188,2.3618164-1.1113281,4.1928711c0.5878906,1.5087891,1.7822266,2.4716797,2.9316406,2.4716797  c0.1120605,0,0.2236328-0.0117188,0.3344727-0.0307617c0.9804688,3.0053711,2.5605469,5.4545898,5.0751953,6.9755859v3.4228516  v0.003418h-1.2246094l0.2507324,1.5615234l0.5820313,3.6254883l0.6657715,4.1479492h11.3696289l1.4121094-8.7988281  l0.0859375-0.5361328h-1.2246094v-3.4042969c2.5200195-1.519043,4.1018066-3.9785156,5.0820313-6.9980469  c0.1064453,0.0170898,0.2138672,0.0292969,0.3227539,0.0292969c0.4907227,0,1.0014648-0.1733398,1.4731445-0.5087891  c0.6245117-0.4448242,1.144043-1.1411133,1.4633827-1.9609375C64.6188965,35.9648438,64.7072754,35.1005859,64.5480957,34.3505859z   M38.900631,8.0576172c0-1.5302734,1.7246094-2.7753906,3.8447266-2.7753906c1.2246094,0,2.3540039,0.425293,3.0981445,1.1660156  c0.2929688,0.2915039,0.765625,0.2915039,1.0585938,0c0.7436523-0.7412109,1.8730469-1.1660156,3.0976563-1.1660156  c1.2250977,0,2.3544922,0.4248047,3.0981445,1.1660156c0.2929688,0.2915039,0.765625,0.2915039,1.0585938,0  c0.7436523-0.7412109,1.8730469-1.1660156,3.0976563-1.1660156c2.1201172,0,3.8447266,1.2451172,3.8447266,2.7753906  c0,0.8134766-0.519043,1.5898438-1.4248047,2.1293945c-0.2661133,0.1586914-0.4077148,0.465332-0.3549805,0.7714844  l0.8762207,5.090332H39.8044395l0.8764648-5.090332c0.0527344-0.3056641-0.0888672-0.612793-0.3549805-0.7714844  C39.4201622,9.6474609,38.900631,8.8710938,38.900631,8.0576172z M37.0974083,36.2402344  c-0.4160156-1.0683594-0.2070313-2.0693359,0.2578125-2.25c0.0576172-0.0224609,0.1176758-0.0322266,0.1777344-0.0322266  c0.1140137,0,0.2280273,0.0356445,0.3291016,0.0795898c0.1621094,1.2905273,0.3833008,2.5307617,0.6779785,3.7041016  C38.0720177,37.6777344,37.4426231,37.1254883,37.0974083,36.2402344z M54.4582481,49.4794922  c-0.0065918,0.0097656-0.0202637,0.0209961-0.029541,0.0317383c-0.0314941,0.0361328-0.0756836,0.0742188-0.1374512,0.1166992  c-0.2463379,0.1704102-0.7333984,0.3779297-1.4567871,0.546875c-0.717041,0.1674805-1.6530762,0.2949219-2.8347168,0.2949219  c-1.1923828,0-2.1342773-0.1293945-2.8525391-0.2949219c-0.763916-0.1757813-1.2700195-0.3916016-1.4916992-0.546875  c-0.0578613-0.0400391-0.09375-0.074707-0.1142578-0.1044922v-0.012207v-2.5610352  c1.2885742,0.5214844,2.7770996,0.8432617,4.496582,0.9301758c1.6879883-0.0854492,3.1503906-0.4023438,4.4204102-0.9130859  V49.4794922z M60.7368126,33.1816406c-0.1989746,1.9467773-0.5119629,3.7036133-0.9709473,5.2558594  c-0.779541,2.6367188-1.9921875,4.6772461-3.8203125,6.03125c-0.2348633,0.1738281-0.4816895,0.3349609-0.7373047,0.4858398  c-0.2456055,0.1450195-0.4846191,0.296875-0.75,0.4204102c-1.2402344,0.5776367-2.7016602,0.9194336-4.4204102,1.0073242  c-0.9868164-0.050293-1.8730469-0.1992188-2.697998-0.4106445c-0.625-0.159668-1.2214355-0.3491211-1.760498-0.5981445  c-0.3874512-0.1791992-0.7497559-0.3852539-1.095459-0.6098633c-2.0737305-1.3447266-3.4052734-3.5-4.2456055-6.3291016  c-0.4602051-1.5493164-0.7739258-3.3017578-0.9733887-5.2436523c-0.0952148-0.9262695-0.1726074-1.8828125-0.2214355-2.8920898  c0.1477051-1.1523438,0.3942871-2.0859375,0.6955566-2.8359375c0.4272461-0.0761719,1.2587891-0.2666016,2.2348633-0.7070313  c0.1870117,0.215332,0.4658203,0.3427734,0.7651367,0.3261719c0.1455078-0.0068359,2.0390625-0.1152344,4.0810547-0.8876953  c0.003418,0.0527344,0.0112305,0.1064453,0.0239258,0.1591797c0.1000977,0.4199219,0.4711914,0.7197266,0.902832,0.7294922  c0.171875,0.003418,3.6435547,0.0498047,5.8642578-2.3579102c0.8769531,2.0380859,2.7749023,5.2426758,6.5458984,7.2792969  l0.6149902,0.8481445C60.7614708,32.9638672,60.7480431,33.0712891,60.7368126,33.1816406z M60.9709435,20.8310547H38.2780724  c-0.019043,0-0.0297852-0.0087891-0.0463867-0.012207c-0.0129395-0.0029297-0.0253906-0.0053711-0.0368652-0.0102539  c-0.052002-0.0195313-0.0930176-0.0478516-0.1120605-0.0712891c-0.027832-0.0351563-0.0712891-0.1083984-0.0488281-0.2109375  l0.2734375-1.2280273l0.3115234-1.4003906l0.0341797-0.1533203c0.0161133-0.0712891,0.0649414-0.1206055,0.1245117-0.1542969  c0.0236816-0.0136719,0.0495605-0.0219727,0.0773926-0.0268555c0.0151367-0.0029297,0.0263672-0.0146484,0.0422363-0.0146484  h0.6489258h20.9072266h0.5351563h0.1142578c0.0444336,0,0.0822754,0.0209961,0.1191406,0.0419922  c0.0595703,0.0341797,0.109375,0.0834961,0.125,0.1533203l0.1010742,0.4541016l0.2443848,1.1000977l0.2731934,1.2290039  c0.0224609,0.1015625-0.0209961,0.175293-0.0488281,0.2099609c-0.0229492,0.0288086-0.0759277,0.065918-0.1486816,0.0810547  c-0.0163574,0.0039063-0.0273438,0.0126953-0.0466309,0.0126953h-0.0112305H60.9709435z M62.9020958,36.2402344  c-0.2114258,0.5429688-0.5527344,1.0107422-0.9360352,1.2836914c-0.0952148,0.0673828-0.293457,0.1855469-0.5019531,0.2177734  c0.2932129-1.1728516,0.5134277-2.4125977,0.6748047-3.7021484c0.1870117-0.0800781,0.3637695-0.1044922,0.5053711-0.0493164  c0.2890625,0.1123047,0.4013672,0.5073242,0.4365234,0.671875C63.178463,35.1225586,63.1135216,35.6977539,62.9020958,36.2402344z   M48.4030724,38.0078125v-1.8710938c0-0.4145508,0.3359375-0.75,0.75-0.75s0.75,0.3354492,0.75,0.75v1.6376953H50.84692  c0.4140625,0,0.75,0.3359375,0.75,0.75s-0.3359375,0.75-0.75,0.75h-1.1777344  C48.9709435,39.2744141,48.4030724,38.7060547,48.4030724,38.0078125z M45.2951622,33.715332  c0,0.7177734-0.5820313,1.2998047-1.3000488,1.2998047s-1.3000488-0.5820313-1.3000488-1.2998047  c0-0.7182617,0.5820313-1.300293,1.3000488-1.300293S45.2951622,32.9970703,45.2951622,33.715332z M57.3046837,33.715332  c0,0.7177734-0.5820313,1.2998047-1.3000488,1.2998047s-1.3000488-0.5820313-1.3000488-1.2998047  c0-0.7182617,0.5820313-1.300293,1.3000488-1.300293S57.3046837,32.9970703,57.3046837,33.715332z M53.3498497,42.1201172  c0,1.1396484-1.7304688,1.5449219-3.3500977,1.5449219s-3.3500977-0.4052734-3.3500977-1.5449219  c0-0.4140625,0.3359375-0.75,0.75-0.75c0.3227539,0,0.5976563,0.2041016,0.7036133,0.4892578  c0.2358398,0.125,0.9179688,0.3056641,1.8964844,0.3056641s1.6606445-0.1806641,1.8964844-0.3056641  c0.105957-0.2851563,0.3808594-0.4892578,0.7036133-0.4892578C53.0139122,41.3701172,53.3498497,41.7060547,53.3498497,42.1201172z   M45.8427696,14.6381836c-0.1452637-0.1523438-0.2316895-0.3579102-0.2097168-0.5834961l0.0334473-0.3461914l0.345459-3.5688477  c0.0400391-0.4121094,0.4121094-0.7099609,0.8188477-0.6738281c0.4121094,0.0400391,0.7143555,0.40625,0.6743164,0.8183594  l-0.3188477,3.293457l-0.0600586,0.621582c-0.012207,0.1259766-0.0632324,0.2353516-0.1286621,0.3339844  c-0.135498,0.2050781-0.3596191,0.34375-0.6169434,0.34375c-0.0244141,0-0.0488281-0.0014648-0.0732422-0.0039063  C46.1208458,14.8549805,45.9626427,14.7641602,45.8427696,14.6381836z M52.8088341,13.5336914l-0.3139648-3.2495117  c-0.0395508-0.4121094,0.262207-0.7783203,0.6743164-0.8183594c0.4077148-0.0380859,0.7788086,0.2617188,0.8188477,0.6738281  l0.3457031,3.578125l0.0327148,0.3369141c0.0224609,0.234375-0.0727539,0.4458008-0.2285156,0.5991211  c-0.1181641,0.1162109-0.2680664,0.2021484-0.4458008,0.2192383c-0.0244141,0.0024414-0.0488281,0.0039063-0.0732422,0.0039063  c-0.2729492,0-0.5124512-0.1518555-0.6435547-0.3779297c-0.0522461-0.090332-0.0913086-0.1894531-0.1020508-0.2998047  L52.8088341,13.5336914z M86.0131836,90.8540039c-0.0046387-0.0092773-0.0021973-0.0200195-0.0070801-0.0288086  l-8.1445313-15.1640625c-0.2861328-0.53125-0.8383789-0.8613281-1.4414063-0.8613281h-7.1008301l-6.0891151-21.7456055  c-0.3312988-1.1826172-1.1069336-2.1191406-2.09375-2.6860352c-0.0668945-0.0385742-0.138916-0.0654297-0.2075195-0.1005859  l-1.668457,10.3955078l1.9958496,12.8242188c-0.0695801-0.0087891-0.1384277-0.0224609-0.2092285-0.0224609h-1.447998H47.9382286  l0.0756836-0.4780273c0.0549316-0.0341797,0.1130371-0.0615234,0.1665039-0.0991211  c0.4777832-0.3354492,0.8413086-0.7827148,1.0976563-1.2895508c0.098877-0.1958008,0.1787109-0.3999023,0.2397461-0.6137695  c0.0344238-0.1201172,0.0783691-0.2363281,0.1000977-0.3613281L49.8908653,69.0625l0.2729492-1.5615234  c0.0209961-0.1201172,0.0187988-0.2397461,0.0273438-0.3598633c0.0153809-0.2172852,0.0112305-0.4316406-0.0131836-0.6450195  c-0.065918-0.5732422-0.2575684-1.1269531-0.5986328-1.612793c-0.0708008-0.1010742-0.157959-0.1850586-0.237793-0.2768555  l0.5083008-3.2089844c0.1557617-0.9819336-0.5141602-1.9042969-1.4960938-2.0595703  c-0.9868164-0.1567383-1.9038086,0.5146484-2.0595703,1.4960938l-0.375,2.3681641l-1.7260742-0.3017578  c-0.4228516-0.0742188-0.8383789-0.0576172-1.2373047,0.0166016l-2.4975586-0.4492188l0.2810059-1.8061523l-0.3571777-2.2246094  l-1.3215332-8.2319336l-0.1506348-0.9384766c-0.0039063-0.0244141-0.0014648-0.0478516-0.0043945-0.0722656  c-0.7709961,0.0712891-1.5351563,0.3242188-2.2099609,0.8085938l-14.666502,10.5419922  c-1.4672852,1.0546875-2.1616211,2.8852539-1.762207,4.6474609c0.3989258,1.7626953,1.8139648,3.1157227,3.5922852,3.4355469  l13.9572735,2.5092773v2.7583008c-0.0561523,0.0483398-0.1152344,0.0927734-0.1652832,0.1484375  c-0.1958008,0.2163086-0.3242188,0.4780273-0.3935547,0.7558594H23.5803204c-0.6030273,0-1.1557617,0.3300781-1.4418945,0.8623047  l-8.1445322,15.1630859c-0.0046387,0.0083008-0.0024414,0.0185547-0.0065918,0.0273438  c-0.0493164,0.1000977-0.0827637,0.2084961-0.0827637,0.3271484v3.3818359c0,0.9135742,0.7431641,1.65625,1.65625,1.65625h68.862793  c0.909668,0,1.652832-0.7392578,1.65625-1.6484375l0.015625-3.3857422  C86.0959473,91.0639648,86.0625,90.9545898,86.0131836,90.8540039z M41.069088,69.1289063l0.5454102-3.121582  c0.1704102-0.9726563,1.0185547-1.659668,1.9741211-1.659668c0.1137695,0,0.2294922,0.0097656,0.3461914,0.0302734  l1.7495117,0.3056641l1.138916,0.1992188l0.2331543,0.0405273c0.5273438,0.0922852,0.987793,0.3842773,1.2954102,0.8222656  c0.0288086,0.0410156,0.0478516,0.0869141,0.0732422,0.1293945l-1.1320801-0.1977539l-1.7185059-0.300293l-0.2636719-0.0458984  c-0.4042969-0.0703125-0.7963867,0.2011719-0.8676758,0.609375s0.2016602,0.796875,0.6098633,0.8681641l0.2868652,0.0498047  l2.3378906,0.4086914L48.6520958,67.4375l-0.1096191,0.6279297l-0.8840332-0.1547852l-2.418457-0.4223633l-0.2973633-0.0517578  c-0.4047852-0.0693359-0.7963867,0.2011719-0.8676758,0.609375s0.2016602,0.796875,0.6098633,0.8681641l0.3205566,0.0556641  l2.2834473,0.3989258l0.9953613,0.1743164l-0.1098633,0.6274414l-1.2009277-0.2099609l-2.0678711-0.3613281l-0.3305664-0.0576172  c-0.4057617-0.0698242-0.7963867,0.2016602-0.8676758,0.6098633c-0.0712891,0.4077148,0.2016602,0.7963867,0.6098633,0.8676758  l0.3537598,0.0620117l1.0197754,0.1782227l1.7402344,0.3037109c-0.0385742,0.0317383-0.0717773,0.0683594-0.112793,0.097168  c-0.4375,0.3076172-0.9697266,0.4262695-1.4970703,0.3344727c-0.0004883,0-0.0004883,0-0.0004883,0l-1.1831055-0.206543  l-0.076416-0.0136719l-1.8625488-0.3251953C41.6101036,71.2587891,40.8791466,70.2177734,41.069088,69.1289063z   M39.0739708,71.3632813l1.1779785,0.2114258c0.5166016,0.6870117,1.2775879,1.1928711,2.1887207,1.3520508l1.8857422,0.3291016  l-0.0332031,0.2089844h-5.3408203c-0.0708008,0-0.1394043,0.0136719-0.2089844,0.0224609L39.0739708,71.3632813z   M38.7634239,75.0498047c0.0288086-0.03125,0.0913086-0.0849609,0.1889648-0.0849609h21.0668945h1.027832  c0.0976563,0,0.1606445,0.0537109,0.1894531,0.0849609c0.0283203,0.0322266,0.0751953,0.1000977,0.0654297,0.1982422  c-0.0102539,0.1020508-0.0324707,0.2001953-0.0458984,0.3017578c-0.032959,0.2519531-0.0664063,0.5043945-0.1171875,0.75  c-0.0039063,0.019043-0.0102539,0.0371094-0.0144043,0.0556641c-0.0231934,0.1088867-0.0554199,0.2138672-0.0817871,0.3212891  c-0.0791016,0.3203125-0.1723633,0.6347656-0.2802734,0.9423828c-1.0361328,2.9492188-3.3662109,5.2890625-6.3498535,6.4663086  c-0.2368164,0.0932617-0.4785156,0.1767578-0.7231445,0.2553711c-1.1589355,0.371582-2.3969727,0.5830078-3.6896973,0.5830078  c-1.2932129,0-2.5317383-0.2114258-3.6911621-0.5834961c-0.2443848-0.0786133-0.4855957-0.1616211-0.722168-0.2553711  c-3.2949219-1.300293-5.7932129-4.0185547-6.6296387-7.4082031c-0.0263672-0.1074219-0.0585938-0.2124023-0.0817871-0.3212891  c-0.0041504-0.0185547-0.010498-0.0366211-0.0144043-0.0556641c-0.0507813-0.2460938-0.0842285-0.4980469-0.1171875-0.75  c-0.0134277-0.1010742-0.0356445-0.1992188-0.0458984-0.3017578C38.6877403,75.1503906,38.7346153,75.0820313,38.7634239,75.0498047  z M53.0456505,86.0693359v0.5097656c0.0004883,0.1572266-0.1572266,0.3574219-0.3017578,0.3828125h-0.0014648  c-1.8198242,0.3266602-3.6655273,0.3271484-5.4833984,0.0004883c-0.1484375-0.0268555-0.3056641-0.2241211-0.3051758-0.3852539  l0.010498-0.5053711c0.9753418,0.222168,1.9885254,0.3520508,3.0354004,0.3520508  C51.0505333,86.4238281,52.0671349,86.2929688,53.0456505,86.0693359z M35.9113731,61.6503906l1.9050293-1.3691406v1.7114258  L35.9113731,61.6503906z M23.4597149,76.3720703c0.0239258-0.0444336,0.0703125-0.0722656,0.1206055-0.0722656h13.7614727  c0.782959,4.3569336,3.9267578,7.8510742,8.1120605,9.340332v0.9355469c-0.0014648,0.887207,0.6733398,1.7055664,1.5385742,1.862793  c0.9975586,0.1787109,2.0024414,0.2685547,3.0073242,0.2685547s2.0097656-0.0898438,3.0073242-0.2685547  c0.8657227-0.1542969,1.5410156-0.972168,1.5385742-1.8608398v-0.9375c2.9577637-1.0522461,5.3969727-3.1040039,6.8508301-5.7563477  c0.6035156-1.1010742,1.0317383-2.3056641,1.2614746-3.5839844h7.0815468h6.6806641  c0.050293,0,0.0961914,0.027832,0.1201172,0.0722656l7.5507813,14.0576172H15.9089327L23.4597149,76.3720703z M84.579834,94.5629883  c-0.0004883,0.0854492-0.0703125,0.1547852-0.15625,0.1547852h-68.862793c-0.0859375,0-0.15625-0.0698242-0.15625-0.15625  v-2.6318359h69.1875L84.579834,94.5629883z M28.9960918,79.4545898c0.0078125-0.050293,0.0300293-0.0957031,0.0300293-0.1479492  v-0.6074219c0-0.5527344-0.4477539-1-1-1h-3.9577637c-0.5522461,0-1,0.4472656-1,1v0.6074219  c0,0.0527344,0.0222168,0.0976563,0.0300293,0.1484375c-0.4694824,0.3139648-0.7797852,0.8486328-0.7797852,1.4545898v5.9926758  c0,0.9648438,0.7851563,1.75,1.75,1.75h3.9575195c0.9648438,0,1.75-0.7851563,1.75-1.75V80.909668  C29.7761211,80.3037109,29.4658184,79.769043,28.9960918,79.4545898z M28.2761211,86.9023438c0,0.1376953-0.1123047,0.25-0.25,0.25  h-3.9575195c-0.1376953,0-0.25-0.1123047-0.25-0.25V80.909668c0-0.1381836,0.1123047-0.25,0.25-0.25h3.9575195  c0.1376953,0,0.25,0.1118164,0.25,0.25V86.9023438z M37.1457481,79.4545898  c0.0078125-0.050293,0.0300293-0.0957031,0.0300293-0.1479492v-0.6074219c0-0.5527344-0.4477539-1-1-1h-3.9575195  c-0.5522442,0-0.9999981,0.4472656-0.9999981,1v0.6074219c0,0.0522461,0.0222168,0.0976563,0.0300293,0.1479492  c-0.4697266,0.3144531-0.7802734,0.8491211-0.7802734,1.4550781v5.9926758c0,0.9648438,0.7851563,1.75,1.7499981,1.75h3.9580078  c0.9648438,0,1.75-0.7851563,1.75-1.75V80.909668C37.9260216,80.3037109,37.6154747,79.769043,37.1457481,79.4545898z   M36.4260216,86.9023438c0,0.1376953-0.1123047,0.25-0.25,0.25h-3.9580078c-0.1376953,0-0.2499981-0.1123047-0.2499981-0.25  V80.909668c0-0.1381836,0.1123028-0.25,0.2499981-0.25h3.9580078c0.1376953,0,0.25,0.1118164,0.25,0.25V86.9023438z   M68.7514648,79.4550781c0.0078125-0.0507813,0.0300293-0.0961914,0.0300293-0.1484375v-0.6074219c0-0.5527344-0.4477539-1-1-1  h-3.9575233c-0.5522461,0-1,0.4472656-1,1v0.6074219c0,0.0522461,0.0219727,0.0976563,0.0297852,0.1484375  c-0.4694824,0.3139648-0.7797852,0.8486328-0.7797852,1.4545898v0.5712891v5.4213867c0,0.9648438,0.7851563,1.75,1.75,1.75  h3.9575233c0.9648438,0,1.75-0.7851563,1.75-1.75V81.515625v-0.605957  C69.5314941,80.3037109,69.2211914,79.769043,68.7514648,79.4550781z M68.0314941,82.9086914v3.9936523  c0,0.1376953-0.1123047,0.25-0.25,0.25h-3.9575233c-0.1376953,0-0.25-0.1123047-0.25-0.25v-4.0146484V80.909668  c0-0.1381836,0.1123047-0.25,0.25-0.25h3.9575233c0.1376953,0,0.25,0.1118164,0.25,0.25V82.9086914z M76.9013672,79.4545898  c0.0078125-0.050293,0.0300293-0.0957031,0.0300293-0.1479492v-0.6074219c0-0.5527344-0.4477539-1-1-1h-3.9577637  c-0.5522461,0-1,0.4472656-1,1v0.6074219c0,0.0527344,0.0222168,0.0976563,0.0300293,0.1484375  c-0.4694824,0.3139648-0.7797852,0.8486328-0.7797852,1.4545898v5.9926758c0,0.9648438,0.7851563,1.75,1.75,1.75h3.9575195  c0.9648438,0,1.75-0.7851563,1.75-1.75V80.909668C77.6813965,80.3037109,77.3710938,79.769043,76.9013672,79.4545898z   M76.1813965,86.9023438c0,0.1376953-0.1123047,0.25-0.25,0.25H71.973877c-0.1376953,0-0.25-0.1123047-0.25-0.25V80.909668  c0-0.1381836,0.1123047-0.25,0.25-0.25h3.9575195c0.1376953,0,0.25,0.1118164,0.25,0.25V86.9023438z M55.1960411,81.6577148  c-0.1875-0.2729492-0.1181641-0.6464844,0.1547852-0.8344727c0.9799805-0.6728516,1.753418-1.5292969,2.2373047-2.4760742  c0.1503906-0.2954102,0.512207-0.4125977,0.8071289-0.2612305c0.2949219,0.1503906,0.4121094,0.5117188,0.2612305,0.8071289  c-0.5742188,1.1245117-1.4824219,2.1337891-2.6259766,2.9194336c-0.1040039,0.0712891-0.222168,0.1054688-0.3393555,0.1054688  C55.5002403,81.9179688,55.312252,81.8271484,55.1960411,81.6577148z M52.3146935,82.7758789  c-0.0898438-0.3188477,0.0961914-0.6499023,0.4150391-0.7397461c0.3959961-0.1113281,0.784668-0.2485352,1.1542969-0.4072266  c0.3061523-0.1318359,0.6577148,0.0102539,0.7880859,0.3144531c0.1308594,0.3046875-0.0102539,0.6572266-0.3144531,0.7880859  c-0.418457,0.1796875-0.8564453,0.3339844-1.3027344,0.4599609c-0.0546875,0.0146484-0.109375,0.0224609-0.1630859,0.0224609  C52.6301231,83.2138672,52.3894005,83.0410156,52.3146935,82.7758789z"/></svg>