<svg xmlns="http://www.w3.org/2000/svg" xmlns:xlink="http://www.w3.org/1999/xlink" version="1.1" x="0px" y="0px" viewBox="0 0 326 277.72875" style="enable-background:new 0 0 326 222.183;" xml:space="preserve"><g><path d="M43.376,190.657c-3.033,0-5.5-2.467-5.5-5.5v-27.645H32V69.513c0-2.209-1.792-4-4-4H4c-2.209,0-4,1.791-4,4V210.18   c0,2.209,1.791,4,4,4h24c2.208,0,4-1.791,4-4v-6h178.995v-13.523H43.376z"/><path d="M189.557,58.848c3.948-2.166,8.101-4.635,12.398-7.251c0.152-0.287,0.3-0.566,0.457-0.865   c0.77-1.471,1.534-2.925,2.311-4.341c-5.946,3.645-11.66,7.127-16.963,10.02c0.319,0.364,0.618,0.748,0.895,1.153   C188.967,58.022,189.267,58.446,189.557,58.848z"/><path d="M92.188,134.323c-0.701,0.991-1.393,1.993-2.08,3H43.376c-1.378,0-2.5,1.121-2.5,2.5v45.334c0,1.379,1.122,2.5,2.5,2.5   h167.619v-28.079c-4.971-1.646-9.922-3.351-14.838-5.047c-24.058-8.303-48.934-16.888-72.887-16.888   c-12.415,0-23.689,2.244-34.305,6.846c21.963-34.584,53.021-59.959,79.109-74.689c-0.472-0.919-0.816-1.877-1.033-2.853   C142.705,80.614,114.036,103.454,92.188,134.323z"/><path d="M287.562,55.102c3.873,29.122,10.442,72.451,19.23,108.554c-10.516,4.865-21.587,7.435-33.705,7.832v16.169h10.955   c1.378,0,2.5-1.121,2.5-2.5V173.12c1.006-0.177,2.006-0.37,3-0.58v12.617c0,3.033-2.467,5.5-5.5,5.5h-10.955v13.523H294v6   c0,2.209,1.791,4,4,4h24c2.208,0,4-1.791,4-4v-71.334c0-2.209-1.792-4-4-4h-18.459c-5.721-28.721-10.128-58.486-13.022-80.258   C289.557,54.786,288.572,54.958,287.562,55.102z"/><path d="M221.049,33.546c0.583-0.099,1.132-0.147,1.675-0.147h29.002c1.484-2.674,2.436-5.682,2.721-8.884   c4.253-1.267,8.484-2.163,12.662-2.582c0.061-1.034,0.256-2.065,0.592-3.071c-4.365,0.37-8.771,1.247-13.188,2.509   C253.924,9.469,244.09,0,232.041,0c-12.426,0-22.5,10.073-22.5,22.5c0,4.629,1.399,8.93,3.796,12.506   c0.319,0.476,0.659,0.937,1.013,1.386C216.285,34.875,218.475,33.857,221.049,33.546z"/><path d="M205.956,52.587c-2.476,4.73-8.273,15.809-11.523,15.998c-0.057-0.006-3.06,0.067-9.083-8.768   c-2.49-3.652-7.468-4.59-11.116-2.103c-3.65,2.489-4.592,7.466-2.103,11.117c7.221,10.591,14.498,15.757,22.216,15.756   c0.337,0,0.677-0.01,1.016-0.03c8.816-0.513,14.866-7.453,19.633-15.254v140.516c0,6.83,5.537,12.363,12.363,12.363   c6.828,0,12.365-5.533,12.365-12.363v-90.272h4.635v90.272c0,6.83,5.537,12.363,12.363,12.363c6.828,0,12.365-5.533,12.365-12.363   V51.772c1.832,0.042,3.641,0.073,5.392,0.073c14.189,0,25.354-1.715,28.064-10.666c2.975-9.819-7.484-17.965-19.229-25.307   c-3.748-2.341-8.684-1.202-11.024,2.544c-2.342,3.747-1.202,8.682,2.544,11.024c4.05,2.531,6.802,4.529,8.664,6.044   c-3.805,0.366-9.427,0.441-16.819,0.222c-1.713-0.051-3.167-0.092-4.229-0.092c-0.371,0-0.732,0.034-1.09,0.083h-38.635   c-0.459,0-0.907,0.048-1.344,0.124C214.306,36.643,210.417,44.063,205.956,52.587z"/></g></svg>