<svg xmlns="http://www.w3.org/2000/svg" viewBox="0 0 64 80" x="0px" y="0px"><title>Bookshelf</title><g><path d="M47,4H17a1,1,0,0,0-1,1V55a1,1,0,0,0,1,1h1.22l.8106,3.2422A1,1,0,0,0,20,60h4a1,1,0,0,0,.97-.7578L25.78,56H38.22l.8106,3.2422A1,1,0,0,0,40,60h4a1,1,0,0,0,.97-.7578L45.78,56H47a1,1,0,0,0,1-1V5A1,1,0,0,0,47,4ZM30,40V38h6v2Zm-4,0V34h2v6Zm-4,0V34h2v6Zm15-4H30V33a1,1,0,0,0-1-1H21a1,1,0,0,0-1,1v7H18V30H46V40H38V37A1,1,0,0,0,37,36ZM32,13V10h2v6H32Zm4-3h2v6H36Zm-6,6H24V14h6Zm-7,2H46V28H38V21a1,1,0,0,0-1-1H25a1,1,0,0,0-1,1v7H18V18Zm3,10V26h6v2Zm6-4H26V22h6Zm2,1V22h2v6H34ZM46,6V16H40V9a1,1,0,0,0-1-1H31a1,1,0,0,0-1,1v3H23a1,1,0,0,0-1,1v3H18V6ZM18,42H31V54H18Zm5.2188,16H20.7813l-.5-2h3.4375Zm20,0H40.7813l-.5-2h3.4375ZM45,54H33V42H46V54ZM27,49V47a1,1,0,0,1,2,0v2a1,1,0,0,1-2,0Zm10-2v2a1,1,0,0,1-2,0V47a1,1,0,0,1,2,0Z"/></g></svg>